<?xml version="1.0" encoding="UTF-8"?>
<svg xmlns="http://www.w3.org/2000/svg" xmlns:xlink="http://www.w3.org/1999/xlink" width="576" height="720" viewBox="0 0 576 720">
<defs>
<g>
<g id="glyph-0-0">
<path d="M 3.40625 -3.75 L 0.546875 -3.75 L 0.546875 -2.875 L 3.40625 -2.875 Z M 3.40625 -3.75 "/>
</g>
<g id="glyph-0-1">
<path d="M 6.078125 -1.046875 L 1.59375 -1.046875 C 1.703125 -1.765625 2.09375 -2.21875 3.125 -2.859375 L 4.328125 -3.53125 C 5.515625 -4.1875 6.125 -5.078125 6.125 -6.140625 C 6.125 -6.859375 5.84375 -7.53125 5.34375 -8 C 4.84375 -8.453125 4.21875 -8.671875 3.40625 -8.671875 C 2.328125 -8.671875 1.53125 -8.296875 1.0625 -7.546875 C 0.75 -7.09375 0.625 -6.546875 0.59375 -5.671875 L 1.65625 -5.671875 C 1.6875 -6.265625 1.765625 -6.609375 1.90625 -6.90625 C 2.1875 -7.421875 2.734375 -7.75 3.375 -7.75 C 4.328125 -7.75 5.046875 -7.0625 5.046875 -6.125 C 5.046875 -5.421875 4.65625 -4.828125 3.90625 -4.390625 L 2.796875 -3.75 C 1.015625 -2.71875 0.5 -1.90625 0.40625 -0.015625 L 6.078125 -0.015625 Z M 6.078125 -1.046875 "/>
</g>
<g id="glyph-0-2">
<path d="M 3.296875 -8.671875 C 2.515625 -8.671875 1.78125 -8.3125 1.34375 -7.734375 C 0.796875 -6.953125 0.515625 -5.8125 0.515625 -4.203125 C 0.515625 -1.265625 1.46875 0.28125 3.296875 0.28125 C 5.09375 0.28125 6.078125 -1.265625 6.078125 -4.125 C 6.078125 -5.8125 5.8125 -6.9375 5.25 -7.734375 C 4.8125 -8.328125 4.109375 -8.671875 3.296875 -8.671875 Z M 3.296875 -7.734375 C 4.4375 -7.734375 5 -6.578125 5 -4.21875 C 5 -1.75 4.453125 -0.59375 3.28125 -0.59375 C 2.15625 -0.59375 1.59375 -1.796875 1.59375 -4.1875 C 1.59375 -6.578125 2.15625 -7.734375 3.296875 -7.734375 Z M 3.296875 -7.734375 "/>
</g>
<g id="glyph-0-3">
<path d="M 3.109375 -6.1875 L 3.109375 0 L 4.15625 0 L 4.15625 -8.671875 L 3.46875 -8.671875 C 3.09375 -7.34375 2.859375 -7.15625 1.21875 -6.953125 L 1.21875 -6.1875 Z M 3.109375 -6.1875 "/>
</g>
<g id="glyph-0-4">
<path d="M 2.65625 -4 L 3.234375 -4 C 4.375 -4 4.984375 -3.453125 4.984375 -2.40625 C 4.984375 -1.3125 4.328125 -0.65625 3.234375 -0.65625 C 2.078125 -0.65625 1.515625 -1.25 1.4375 -2.515625 L 0.390625 -2.515625 C 0.4375 -1.828125 0.546875 -1.375 0.75 -0.984375 C 1.203125 -0.140625 2.03125 0.28125 3.1875 0.28125 C 4.9375 0.28125 6.078125 -0.78125 6.078125 -2.421875 C 6.078125 -3.53125 5.65625 -4.125 4.625 -4.484375 C 5.421875 -4.8125 5.8125 -5.40625 5.8125 -6.28125 C 5.8125 -7.78125 4.84375 -8.671875 3.234375 -8.671875 C 1.515625 -8.671875 0.59375 -7.71875 0.5625 -5.875 L 1.625 -5.875 C 1.625 -6.40625 1.6875 -6.703125 1.8125 -6.96875 C 2.046875 -7.46875 2.578125 -7.75 3.234375 -7.75 C 4.171875 -7.75 4.734375 -7.1875 4.734375 -6.25 C 4.734375 -5.640625 4.53125 -5.265625 4.0625 -5.0625 C 3.765625 -4.9375 3.390625 -4.890625 2.65625 -4.890625 Z M 2.65625 -4 "/>
</g>
<g id="glyph-1-0">
<path d="M -3.75 -3.40625 L -3.75 -0.546875 L -2.875 -0.546875 L -2.875 -3.40625 Z M -3.75 -3.40625 "/>
</g>
<g id="glyph-1-1">
<path d="M -6.421875 -5.96875 C -7.84375 -5.765625 -8.671875 -4.859375 -8.671875 -3.5625 C -8.671875 -2.625 -8.21875 -1.78125 -7.4375 -1.28125 C -6.59375 -0.75 -5.53125 -0.515625 -3.953125 -0.515625 C -2.5 -0.515625 -1.578125 -0.71875 -0.796875 -1.234375 C -0.09375 -1.6875 0.28125 -2.4375 0.28125 -3.375 C 0.28125 -4.984375 -0.9375 -6.15625 -2.625 -6.15625 C -4.21875 -6.15625 -5.359375 -5.078125 -5.359375 -3.546875 C -5.359375 -2.71875 -5.046875 -2.046875 -4.40625 -1.59375 C -6.546875 -1.609375 -7.734375 -2.28125 -7.734375 -3.484375 C -7.734375 -4.234375 -7.265625 -4.75 -6.421875 -4.921875 Z M -4.421875 -3.421875 C -4.421875 -4.4375 -3.703125 -5.078125 -2.546875 -5.078125 C -1.453125 -5.078125 -0.65625 -4.359375 -0.65625 -3.390625 C -0.65625 -2.40625 -1.484375 -1.65625 -2.59375 -1.65625 C -3.671875 -1.65625 -4.421875 -2.375 -4.421875 -3.421875 Z M -4.421875 -3.421875 "/>
</g>
<g id="glyph-1-2">
<path d="M -2.09375 -3.921875 L 0 -3.921875 L 0 -4.984375 L -2.09375 -4.984375 L -2.09375 -6.234375 L -3.046875 -6.234375 L -3.046875 -4.984375 L -8.671875 -4.984375 L -8.671875 -4.203125 L -3.21875 -0.34375 L -2.09375 -0.34375 Z M -3.046875 -3.921875 L -3.046875 -1.265625 L -6.875 -3.921875 Z M -3.046875 -3.921875 "/>
</g>
<g id="glyph-1-3">
<path d="M -1.046875 -6.078125 L -1.046875 -1.59375 C -1.765625 -1.703125 -2.21875 -2.09375 -2.859375 -3.125 L -3.53125 -4.328125 C -4.1875 -5.515625 -5.078125 -6.125 -6.140625 -6.125 C -6.859375 -6.125 -7.53125 -5.84375 -8 -5.34375 C -8.453125 -4.84375 -8.671875 -4.21875 -8.671875 -3.40625 C -8.671875 -2.328125 -8.296875 -1.53125 -7.546875 -1.0625 C -7.09375 -0.75 -6.546875 -0.625 -5.671875 -0.59375 L -5.671875 -1.65625 C -6.265625 -1.6875 -6.609375 -1.765625 -6.90625 -1.90625 C -7.421875 -2.1875 -7.75 -2.734375 -7.75 -3.375 C -7.75 -4.328125 -7.0625 -5.046875 -6.125 -5.046875 C -5.421875 -5.046875 -4.828125 -4.65625 -4.390625 -3.90625 L -3.75 -2.796875 C -2.71875 -1.015625 -1.90625 -0.5 -0.015625 -0.40625 L -0.015625 -6.078125 Z M -1.046875 -6.078125 "/>
</g>
<g id="glyph-1-4">
<path d="M -8.671875 -3.296875 C -8.671875 -2.515625 -8.3125 -1.78125 -7.734375 -1.34375 C -6.953125 -0.796875 -5.8125 -0.515625 -4.203125 -0.515625 C -1.265625 -0.515625 0.28125 -1.46875 0.28125 -3.296875 C 0.28125 -5.09375 -1.265625 -6.078125 -4.125 -6.078125 C -5.8125 -6.078125 -6.9375 -5.8125 -7.734375 -5.25 C -8.328125 -4.8125 -8.671875 -4.109375 -8.671875 -3.296875 Z M -7.734375 -3.296875 C -7.734375 -4.4375 -6.578125 -5 -4.21875 -5 C -1.75 -5 -0.59375 -4.453125 -0.59375 -3.28125 C -0.59375 -2.15625 -1.796875 -1.59375 -4.1875 -1.59375 C -6.578125 -1.59375 -7.734375 -2.15625 -7.734375 -3.296875 Z M -7.734375 -3.296875 "/>
</g>
<g id="glyph-2-0">
<path d="M 7.140625 0 L 11.640625 -13.125 L 8.921875 -13.125 L 6.0625 -3.234375 L 3.15625 -13.125 L 0.4375 -13.125 L 4.859375 0 Z M 7.140625 0 "/>
</g>
<g id="glyph-2-1">
<path d="M 3.71875 -9.71875 L 1.203125 -9.71875 L 1.203125 0 L 3.71875 0 Z M 3.71875 -13.125 L 1.203125 -13.125 L 1.203125 -10.875 L 3.71875 -10.875 Z M 3.71875 -13.125 "/>
</g>
<g id="glyph-2-2">
<path d="M 5.421875 -9.515625 L 4.015625 -9.515625 L 4.015625 -12.125 L 1.5 -12.125 L 1.5 -9.515625 L 0.25 -9.515625 L 0.25 -7.84375 L 1.5 -7.84375 L 1.5 -1.875 C 1.5 -0.34375 2.296875 0.40625 3.953125 0.40625 C 4.53125 0.40625 4.953125 0.359375 5.421875 0.21875 L 5.421875 -1.546875 C 5.171875 -1.515625 5.046875 -1.5 4.84375 -1.5 C 4.171875 -1.5 4.015625 -1.6875 4.015625 -2.5625 L 4.015625 -7.84375 L 5.421875 -7.84375 Z M 5.421875 -9.515625 "/>
</g>
<g id="glyph-2-3">
<path d="M 6.296875 0 L 9.640625 -9.71875 L 6.984375 -9.71875 L 5.015625 -2.609375 L 2.921875 -9.71875 L 0.25 -9.71875 L 3.65625 0 Z M 6.296875 0 "/>
</g>
<g id="glyph-2-4">
<path d="M 4.28125 -8.796875 L 4.28125 0 L 6.796875 0 L 6.796875 -12.765625 L 5.125 -12.765625 C 4.734375 -11.25 3.421875 -10.46875 1.21875 -10.46875 L 1.21875 -8.796875 Z M 4.28125 -8.796875 "/>
</g>
<g id="glyph-2-5">
<path d="M 4.90625 -13.03125 C 3.546875 -13.03125 2.375 -12.453125 1.609375 -11.390625 C 0.859375 -10.40625 0.515625 -8.78125 0.515625 -6.296875 C 0.515625 -4.03125 0.8125 -2.453125 1.421875 -1.46875 C 2.171875 -0.25 3.421875 0.40625 4.90625 0.40625 C 6.296875 0.40625 7.4375 -0.140625 8.21875 -1.203125 C 8.953125 -2.203125 9.3125 -3.828125 9.3125 -6.234375 C 9.3125 -8.5625 9.015625 -10.15625 8.40625 -11.140625 C 7.65625 -12.359375 6.40625 -13.03125 4.90625 -13.03125 Z M 4.90625 -11 C 5.5625 -11 6.078125 -10.640625 6.390625 -9.96875 C 6.640625 -9.4375 6.78125 -8.046875 6.78125 -6.28125 C 6.78125 -4.84375 6.65625 -3.4375 6.46875 -2.921875 C 6.171875 -2.15625 5.640625 -1.75 4.90625 -1.75 C 4.25 -1.75 3.75 -2.09375 3.4375 -2.734375 C 3.1875 -3.28125 3.046875 -4.609375 3.046875 -6.3125 C 3.046875 -7.828125 3.171875 -9.265625 3.359375 -9.796875 C 3.640625 -10.5625 4.1875 -11 4.90625 -11 Z M 4.90625 -11 "/>
</g>
<g id="glyph-2-6">
<path d="M 7.203125 -9.71875 L 7.203125 -8.21875 C 6.5 -9.359375 5.71875 -9.875 4.703125 -9.875 C 3.828125 -9.875 2.875 -9.453125 2.21875 -8.75 C 1.234375 -7.734375 0.734375 -6.34375 0.734375 -4.625 C 0.734375 -1.640625 2.328125 0.40625 4.640625 0.40625 C 5.6875 0.40625 6.3125 0.078125 7.203125 -0.984375 L 7.203125 0.328125 C 7.203125 1.5 6.375 2.296875 5.1875 2.296875 C 4.28125 2.296875 3.71875 1.90625 3.53125 1.171875 L 0.9375 1.171875 C 0.953125 1.921875 1.21875 2.453125 1.890625 2.984375 C 2.65625 3.625 3.71875 3.921875 5.09375 3.921875 C 7.90625 3.921875 9.59375 2.578125 9.59375 0.328125 L 9.59375 -9.71875 Z M 5.171875 -7.78125 C 6.359375 -7.78125 7.234375 -6.46875 7.234375 -4.65625 C 7.234375 -2.890625 6.390625 -1.6875 5.125 -1.6875 C 4.03125 -1.6875 3.265625 -2.890625 3.265625 -4.65625 C 3.265625 -6.5 4.03125 -7.78125 5.171875 -7.78125 Z M 5.171875 -7.78125 "/>
</g>
<g id="glyph-2-7">
<path d="M 9.125 -9.859375 C 9 -10.6875 8.84375 -11.109375 8.515625 -11.578125 C 7.84375 -12.484375 6.671875 -13.03125 5.296875 -13.03125 C 3.703125 -13.03125 2.40625 -12.328125 1.640625 -11.046875 C 0.875 -9.8125 0.578125 -8.390625 0.578125 -6.0625 C 0.578125 -3.875 0.84375 -2.5 1.5 -1.46875 C 2.234375 -0.28125 3.5625 0.40625 5.078125 0.40625 C 7.609375 0.40625 9.34375 -1.46875 9.34375 -4.265625 C 9.34375 -6.71875 7.828125 -8.40625 5.640625 -8.40625 C 4.59375 -8.40625 3.890625 -8.09375 3.09375 -7.265625 L 3.109375 -7.546875 C 3.15625 -8.734375 3.203125 -9.109375 3.390625 -9.59375 C 3.71875 -10.53125 4.34375 -11 5.21875 -11 C 6.03125 -11 6.46875 -10.671875 6.78125 -9.859375 Z M 5 -6.40625 C 6.1875 -6.40625 6.953125 -5.515625 6.953125 -4.09375 C 6.953125 -2.734375 6.125 -1.75 5 -1.75 C 3.859375 -1.75 3.0625 -2.6875 3.0625 -4.046875 C 3.0625 -5.4375 3.859375 -6.40625 5 -6.40625 Z M 5 -6.40625 "/>
</g>
<g id="glyph-2-8">
<path d="M 8.796875 -12.765625 L 1.984375 -12.765625 L 0.84375 -5.65625 L 3.109375 -5.65625 C 3.390625 -6.28125 3.953125 -6.625 4.734375 -6.625 C 6.015625 -6.625 6.78125 -5.703125 6.78125 -4.15625 C 6.78125 -2.65625 6.015625 -1.75 4.734375 -1.75 C 3.640625 -1.75 3.03125 -2.296875 2.96875 -3.328125 L 0.484375 -3.328125 C 0.515625 -1.09375 2.21875 0.40625 4.703125 0.40625 C 7.4375 0.40625 9.3125 -1.453125 9.3125 -4.21875 C 9.3125 -6.84375 7.6875 -8.625 5.328125 -8.625 C 4.484375 -8.625 3.859375 -8.40625 3.109375 -7.84375 L 3.53125 -10.515625 L 8.796875 -10.515625 Z M 8.796875 -12.765625 "/>
</g>
<g id="glyph-2-9">
</g>
<g id="glyph-2-10">
<path d="M 5.359375 -6.15625 L 0.46875 -6.15625 L 0.46875 -3.71875 L 5.359375 -3.71875 Z M 5.359375 -6.15625 "/>
</g>
<g id="glyph-2-11">
<path d="M 9.390625 -6.078125 C 9.21875 -8.453125 7.65625 -9.875 5.203125 -9.875 C 2.28125 -9.875 0.609375 -7.96875 0.609375 -4.65625 C 0.609375 -1.453125 2.28125 0.40625 5.171875 0.40625 C 7.53125 0.40625 9.15625 -1.046875 9.390625 -3.359375 L 6.984375 -3.359375 C 6.671875 -2.109375 6.171875 -1.625 5.171875 -1.625 C 3.890625 -1.625 3.125 -2.75 3.125 -4.65625 C 3.125 -5.59375 3.3125 -6.4375 3.625 -7.015625 C 3.90625 -7.5625 4.46875 -7.84375 5.1875 -7.84375 C 6.203125 -7.84375 6.703125 -7.359375 6.984375 -6.078125 Z M 9.390625 -6.078125 "/>
</g>
<g id="glyph-2-12">
<path d="M 5.421875 -9.875 C 2.453125 -9.875 0.625 -7.921875 0.625 -4.734375 C 0.625 -1.53125 2.453125 0.40625 5.4375 0.40625 C 8.40625 0.40625 10.234375 -1.53125 10.234375 -4.65625 C 10.234375 -7.953125 8.453125 -9.875 5.421875 -9.875 Z M 5.4375 -7.84375 C 6.828125 -7.84375 7.71875 -6.609375 7.71875 -4.703125 C 7.71875 -2.875 6.78125 -1.625 5.4375 -1.625 C 4.0625 -1.625 3.15625 -2.859375 3.15625 -4.734375 C 3.15625 -6.609375 4.0625 -7.84375 5.4375 -7.84375 Z M 5.4375 -7.84375 "/>
</g>
<g id="glyph-2-13">
<path d="M 1.140625 -9.71875 L 1.140625 0 L 3.65625 0 L 3.65625 -5.171875 C 3.65625 -6.640625 4.390625 -7.375 5.875 -7.375 C 6.140625 -7.375 6.3125 -7.359375 6.65625 -7.3125 L 6.65625 -9.859375 C 6.515625 -9.875 6.46875 -9.875 6.359375 -9.875 C 5.203125 -9.875 4.21875 -9.125 3.65625 -7.8125 L 3.65625 -9.71875 Z M 1.140625 -9.71875 "/>
</g>
<g id="glyph-2-14">
<path d="M 9.4375 -0.3125 C 9 -0.71875 8.859375 -1.015625 8.859375 -1.5 L 8.859375 -6.890625 C 8.859375 -8.875 7.5 -9.875 4.875 -9.875 C 2.25 -9.875 0.875 -8.765625 0.71875 -6.515625 L 3.15625 -6.515625 C 3.28125 -7.53125 3.6875 -7.84375 4.9375 -7.84375 C 5.90625 -7.84375 6.390625 -7.53125 6.390625 -6.875 C 6.390625 -6.546875 6.234375 -6.28125 5.953125 -6.125 C 5.609375 -5.9375 5.609375 -5.9375 4.375 -5.734375 L 3.359375 -5.5625 C 1.4375 -5.234375 0.5 -4.25 0.5 -2.5 C 0.5 -0.75 1.671875 0.40625 3.453125 0.40625 C 4.53125 0.40625 5.515625 -0.03125 6.40625 -0.96875 C 6.40625 -0.46875 6.46875 -0.28125 6.703125 0 L 9.4375 0 Z M 6.390625 -3.90625 C 6.390625 -2.453125 5.671875 -1.625 4.390625 -1.625 C 3.546875 -1.625 3.03125 -2.0625 3.03125 -2.796875 C 3.03125 -3.546875 3.421875 -3.90625 4.46875 -4.125 L 5.328125 -4.28125 C 6 -4.40625 6.109375 -4.453125 6.390625 -4.59375 Z M 6.390625 -3.90625 "/>
</g>
<g id="glyph-2-15">
<path d="M 1.140625 -9.71875 L 1.140625 0 L 3.65625 0 L 3.65625 -5.828125 C 3.65625 -6.984375 4.453125 -7.734375 5.6875 -7.734375 C 6.765625 -7.734375 7.3125 -7.140625 7.3125 -6 L 7.3125 0 L 9.828125 0 L 9.828125 -6.515625 C 9.828125 -8.671875 8.65625 -9.875 6.5625 -9.875 C 5.25 -9.875 4.375 -9.40625 3.65625 -8.3125 L 3.65625 -9.71875 Z M 1.140625 -9.71875 "/>
</g>
<g id="glyph-2-16">
<path d="M 9.09375 -6.59375 C 9.046875 -8.640625 7.46875 -9.875 4.859375 -9.875 C 2.390625 -9.875 0.859375 -8.640625 0.859375 -6.640625 C 0.859375 -6 1.0625 -5.4375 1.40625 -5.0625 C 1.75 -4.71875 2.046875 -4.546875 2.984375 -4.25 L 6 -3.3125 C 6.625 -3.109375 6.84375 -2.921875 6.84375 -2.515625 C 6.84375 -1.921875 6.140625 -1.5625 4.96875 -1.5625 C 4.296875 -1.5625 3.796875 -1.671875 3.46875 -1.90625 C 3.203125 -2.109375 3.09375 -2.296875 2.984375 -2.828125 L 0.515625 -2.828125 C 0.59375 -0.6875 2.15625 0.40625 5.109375 0.40625 C 6.46875 0.40625 7.484375 0.125 8.203125 -0.453125 C 8.921875 -1.03125 9.359375 -1.921875 9.359375 -2.875 C 9.359375 -4.140625 8.734375 -4.953125 7.453125 -5.328125 L 4.265625 -6.25 C 3.5625 -6.46875 3.390625 -6.609375 3.390625 -7 C 3.390625 -7.546875 3.953125 -7.90625 4.84375 -7.90625 C 6.046875 -7.90625 6.640625 -7.46875 6.65625 -6.59375 Z M 9.09375 -6.59375 "/>
</g>
<g id="glyph-2-17">
<path d="M 3.5625 -9.71875 L 1.046875 -9.71875 L 1.046875 3.921875 L 3.5625 3.921875 L 3.5625 -1.15625 C 4.171875 -0.078125 5.046875 0.4375 6.265625 0.4375 C 8.609375 0.4375 10.328125 -1.765625 10.328125 -4.71875 C 10.328125 -6.078125 9.9375 -7.453125 9.28125 -8.359375 C 8.640625 -9.265625 7.4375 -9.875 6.265625 -9.875 C 5.046875 -9.875 4.171875 -9.359375 3.5625 -8.28125 Z M 5.6875 -7.78125 C 6.96875 -7.78125 7.8125 -6.546875 7.8125 -4.6875 C 7.8125 -2.890625 6.953125 -1.671875 5.6875 -1.671875 C 4.40625 -1.671875 3.5625 -2.890625 3.5625 -4.71875 C 3.5625 -6.546875 4.40625 -7.78125 5.6875 -7.78125 Z M 5.6875 -7.78125 "/>
</g>
<g id="glyph-2-18">
<path d="M 3.71875 -13.125 L 1.203125 -13.125 L 1.203125 0 L 3.71875 0 Z M 3.71875 -13.125 "/>
</g>
<g id="glyph-2-19">
<path d="M 1.078125 -9.71875 L 1.078125 0 L 3.59375 0 L 3.59375 -5.828125 C 3.59375 -7.03125 4.25 -7.734375 5.328125 -7.734375 C 6.171875 -7.734375 6.703125 -7.25 6.703125 -6.484375 L 6.703125 0 L 9.21875 0 L 9.21875 -5.828125 C 9.21875 -7.015625 9.859375 -7.734375 10.9375 -7.734375 C 11.796875 -7.734375 12.3125 -7.25 12.3125 -6.484375 L 12.3125 0 L 14.828125 0 L 14.828125 -6.875 C 14.828125 -8.765625 13.6875 -9.875 11.734375 -9.875 C 10.5 -9.875 9.640625 -9.453125 8.890625 -8.4375 C 8.421875 -9.359375 7.453125 -9.875 6.25 -9.875 C 5.125 -9.875 4.40625 -9.515625 3.578125 -8.515625 L 3.578125 -9.71875 Z M 1.078125 -9.71875 "/>
</g>
<g id="glyph-2-20">
<path d="M 7.296875 0 L 9.8125 0 L 9.8125 -13.125 L 7.296875 -13.125 L 7.296875 -8.453125 C 6.65625 -9.4375 5.828125 -9.875 4.609375 -9.875 C 2.28125 -9.875 0.515625 -7.65625 0.515625 -4.71875 C 0.515625 -3.40625 0.921875 -2.0625 1.5625 -1.140625 C 2.234375 -0.1875 3.421875 0.40625 4.609375 0.40625 C 5.828125 0.40625 6.65625 -0.015625 7.296875 -0.984375 Z M 5.171875 -7.78125 C 6.4375 -7.78125 7.296875 -6.546875 7.296875 -4.6875 C 7.296875 -2.921875 6.421875 -1.6875 5.171875 -1.6875 C 3.90625 -1.6875 3.046875 -2.9375 3.046875 -4.71875 C 3.046875 -6.53125 3.90625 -7.78125 5.171875 -7.78125 Z M 5.171875 -7.78125 "/>
</g>
<g id="glyph-2-21">
<path d="M 9.734375 0 L 9.734375 -9.71875 L 7.21875 -9.71875 L 7.21875 -3.640625 C 7.21875 -2.484375 6.421875 -1.734375 5.1875 -1.734375 C 4.109375 -1.734375 3.5625 -2.296875 3.5625 -3.46875 L 3.5625 -9.71875 L 1.046875 -9.71875 L 1.046875 -2.953125 C 1.046875 -0.796875 2.21875 0.40625 4.296875 0.40625 C 5.609375 0.40625 6.5 -0.046875 7.21875 -1.15625 L 7.21875 0 Z M 9.734375 0 "/>
</g>
<g id="glyph-2-22">
<path d="M 9.4375 -4.0625 C 9.453125 -4.28125 9.453125 -4.375 9.453125 -4.5 C 9.453125 -5.46875 9.3125 -6.375 9.078125 -7.0625 C 8.421875 -8.8125 6.859375 -9.875 4.890625 -9.875 C 2.109375 -9.875 0.390625 -7.859375 0.390625 -4.609375 C 0.390625 -1.5 2.09375 0.40625 4.84375 0.40625 C 7.015625 0.40625 8.78125 -0.8125 9.34375 -2.734375 L 6.859375 -2.734375 C 6.546875 -1.96875 5.84375 -1.515625 4.9375 -1.515625 C 4.21875 -1.515625 3.640625 -1.8125 3.28125 -2.359375 C 3.046875 -2.71875 2.953125 -3.15625 2.921875 -4.0625 Z M 2.953125 -5.734375 C 3.109375 -7.234375 3.75 -7.953125 4.859375 -7.953125 C 6.015625 -7.953125 6.703125 -7.1875 6.828125 -5.734375 Z M 2.953125 -5.734375 "/>
</g>
<g id="glyph-3-0">
<path d="M 3.3125 -5.5625 L 7.4375 -5.5625 C 8.453125 -5.5625 9.265625 -5.875 9.96875 -6.5 C 10.765625 -7.21875 11.109375 -8.0625 11.109375 -9.265625 C 11.109375 -11.734375 9.640625 -13.125 7.0625 -13.125 L 1.640625 -13.125 L 1.640625 0 L 3.3125 0 Z M 3.3125 -7.03125 L 3.3125 -11.640625 L 6.796875 -11.640625 C 8.40625 -11.640625 9.359375 -10.78125 9.359375 -9.34375 C 9.359375 -7.90625 8.40625 -7.03125 6.796875 -7.03125 Z M 3.3125 -7.03125 "/>
</g>
<g id="glyph-3-1">
<path d="M 11.921875 -9.046875 C 11.390625 -11.9375 9.734375 -13.34375 6.859375 -13.34375 C 5.09375 -13.34375 3.671875 -12.78125 2.703125 -11.703125 C 1.515625 -10.40625 0.859375 -8.53125 0.859375 -6.40625 C 0.859375 -4.25 1.53125 -2.390625 2.75 -1.109375 C 3.78125 -0.078125 5.078125 0.40625 6.78125 0.40625 C 9.984375 0.40625 11.796875 -1.3125 12.1875 -4.78125 L 10.453125 -4.78125 C 10.3125 -3.890625 10.140625 -3.28125 9.859375 -2.75 C 9.328125 -1.671875 8.203125 -1.0625 6.796875 -1.0625 C 4.1875 -1.0625 2.53125 -3.15625 2.53125 -6.421875 C 2.53125 -9.796875 4.109375 -11.859375 6.65625 -11.859375 C 7.71875 -11.859375 8.71875 -11.5625 9.25 -11.03125 C 9.734375 -10.578125 10.015625 -10.046875 10.203125 -9.046875 Z M 11.921875 -9.046875 "/>
</g>
<g id="glyph-3-2">
<path d="M 4.65625 -9.265625 L 4.65625 0 L 6.25 0 L 6.25 -13.015625 L 5.203125 -13.015625 C 4.640625 -11.015625 4.28125 -10.75 1.84375 -10.421875 L 1.84375 -9.265625 Z M 4.65625 -9.265625 "/>
</g>
<g id="glyph-3-3">
</g>
<g id="glyph-3-4">
<path d="M 4.5 -13.125 L 1.15625 -13.125 L 1.15625 3.8125 L 4.5 3.8125 L 4.5 2.515625 L 2.640625 2.515625 L 2.640625 -11.828125 L 4.5 -11.828125 Z M 4.5 -13.125 "/>
</g>
<g id="glyph-3-5">
<path d="M 7.03125 -6.859375 C 8.375 -7.671875 8.78125 -8.3125 8.78125 -9.546875 C 8.78125 -11.59375 7.21875 -13.015625 4.953125 -13.015625 C 2.703125 -13.015625 1.109375 -11.59375 1.109375 -9.5625 C 1.109375 -8.3125 1.53125 -7.6875 2.84375 -6.859375 C 1.390625 -6.125 0.671875 -5.0625 0.671875 -3.625 C 0.671875 -1.234375 2.40625 0.40625 4.953125 0.40625 C 7.46875 0.40625 9.234375 -1.234375 9.234375 -3.625 C 9.234375 -5.0625 8.515625 -6.125 7.03125 -6.859375 Z M 4.953125 -11.609375 C 6.296875 -11.609375 7.15625 -10.796875 7.15625 -9.5 C 7.15625 -8.28125 6.28125 -7.46875 4.953125 -7.46875 C 3.59375 -7.46875 2.734375 -8.28125 2.734375 -9.546875 C 2.734375 -10.796875 3.59375 -11.609375 4.953125 -11.609375 Z M 4.953125 -6.140625 C 6.53125 -6.140625 7.609375 -5.09375 7.609375 -3.578125 C 7.609375 -2.015625 6.546875 -0.984375 4.90625 -0.984375 C 3.359375 -0.984375 2.28125 -2.046875 2.28125 -3.5625 C 2.28125 -5.109375 3.34375 -6.140625 4.953125 -6.140625 Z M 4.953125 -6.140625 "/>
</g>
<g id="glyph-3-6">
<path d="M 9.359375 -12.765625 L 0.828125 -12.765625 L 0.828125 -11.203125 L 7.71875 -11.203125 C 4.6875 -6.859375 3.4375 -4.1875 2.484375 0 L 4.171875 0 C 4.875 -4.09375 6.484375 -7.59375 9.359375 -11.4375 Z M 9.359375 -12.765625 "/>
</g>
<g id="glyph-3-7">
<path d="M 3.4375 -1.875 L 1.5625 -1.875 L 1.5625 0 L 3.4375 0 Z M 3.4375 -1.875 "/>
</g>
<g id="glyph-3-8">
<path d="M 8.5625 -12.765625 L 1.984375 -12.765625 L 1.03125 -5.8125 L 2.484375 -5.8125 C 3.21875 -6.703125 3.828125 -7 4.84375 -7 C 6.546875 -7 7.609375 -5.828125 7.609375 -3.9375 C 7.609375 -2.109375 6.546875 -0.984375 4.828125 -0.984375 C 3.4375 -0.984375 2.59375 -1.6875 2.21875 -3.125 L 0.625 -3.125 C 0.84375 -2.09375 1.03125 -1.578125 1.40625 -1.109375 C 2.125 -0.140625 3.421875 0.40625 4.859375 0.40625 C 7.4375 0.40625 9.234375 -1.453125 9.234375 -4.15625 C 9.234375 -6.671875 7.5625 -8.40625 5.109375 -8.40625 C 4.21875 -8.40625 3.484375 -8.171875 2.75 -7.625 L 3.265625 -11.203125 L 8.5625 -11.203125 Z M 8.5625 -12.765625 "/>
</g>
<g id="glyph-3-9">
<path d="M 3.578125 -12.328125 C 1.890625 -12.328125 0.515625 -10.9375 0.515625 -9.25 C 0.515625 -7.5625 1.890625 -6.171875 3.59375 -6.171875 C 5.28125 -6.171875 6.65625 -7.5625 6.65625 -9.21875 C 6.65625 -10.96875 5.3125 -12.328125 3.578125 -12.328125 Z M 3.578125 -11.0625 C 4.609375 -11.0625 5.421875 -10.265625 5.421875 -9.234375 C 5.421875 -8.25 4.59375 -7.4375 3.59375 -7.4375 C 2.59375 -7.4375 1.765625 -8.25 1.765625 -9.25 C 1.765625 -10.265625 2.578125 -11.0625 3.578125 -11.0625 Z M 10.96875 -12.765625 L 3.859375 0.359375 L 5.046875 0.359375 L 12.15625 -12.765625 Z M 12.390625 -5.796875 C 10.6875 -5.796875 9.328125 -4.421875 9.328125 -2.734375 C 9.328125 -1.03125 10.6875 0.34375 12.40625 0.34375 C 14.078125 0.34375 15.46875 -1.03125 15.46875 -2.703125 C 15.46875 -4.421875 14.109375 -5.796875 12.390625 -5.796875 Z M 12.390625 -4.53125 C 13.40625 -4.53125 14.21875 -3.71875 14.21875 -2.703125 C 14.21875 -1.734375 13.390625 -0.921875 12.40625 -0.921875 C 11.375 -0.921875 10.5625 -1.734375 10.5625 -2.734375 C 10.5625 -3.71875 11.375 -4.53125 12.390625 -4.53125 Z M 12.390625 -4.53125 "/>
</g>
<g id="glyph-3-10">
<path d="M 0.40625 3.8125 L 3.765625 3.8125 L 3.765625 -13.125 L 0.40625 -13.125 L 0.40625 -11.828125 L 2.265625 -11.828125 L 2.265625 2.515625 L 0.40625 2.515625 Z M 0.40625 3.8125 "/>
</g>
<g id="glyph-4-0">
<path d="M -5.5625 -3.3125 L -5.5625 -7.4375 C -5.5625 -8.453125 -5.875 -9.265625 -6.5 -9.96875 C -7.21875 -10.765625 -8.0625 -11.109375 -9.265625 -11.109375 C -11.734375 -11.109375 -13.125 -9.640625 -13.125 -7.0625 L -13.125 -1.640625 L 0 -1.640625 L 0 -3.3125 Z M -7.03125 -3.3125 L -11.640625 -3.3125 L -11.640625 -6.796875 C -11.640625 -8.40625 -10.78125 -9.359375 -9.34375 -9.359375 C -7.90625 -9.359375 -7.03125 -8.40625 -7.03125 -6.796875 Z M -7.03125 -3.3125 "/>
</g>
<g id="glyph-4-1">
<path d="M -9.046875 -11.921875 C -11.9375 -11.390625 -13.34375 -9.734375 -13.34375 -6.859375 C -13.34375 -5.09375 -12.78125 -3.671875 -11.703125 -2.703125 C -10.40625 -1.515625 -8.53125 -0.859375 -6.40625 -0.859375 C -4.25 -0.859375 -2.390625 -1.53125 -1.109375 -2.75 C -0.078125 -3.78125 0.40625 -5.078125 0.40625 -6.78125 C 0.40625 -9.984375 -1.3125 -11.796875 -4.78125 -12.1875 L -4.78125 -10.453125 C -3.890625 -10.3125 -3.28125 -10.140625 -2.75 -9.859375 C -1.671875 -9.328125 -1.0625 -8.203125 -1.0625 -6.796875 C -1.0625 -4.1875 -3.15625 -2.53125 -6.421875 -2.53125 C -9.796875 -2.53125 -11.859375 -4.109375 -11.859375 -6.65625 C -11.859375 -7.71875 -11.5625 -8.71875 -11.03125 -9.25 C -10.578125 -9.734375 -10.046875 -10.015625 -9.046875 -10.203125 Z M -9.046875 -11.921875 "/>
</g>
<g id="glyph-4-2">
<path d="M -1.5625 -9.109375 L -1.5625 -2.390625 C -2.640625 -2.5625 -3.328125 -3.125 -4.28125 -4.703125 L -5.296875 -6.5 C -6.28125 -8.28125 -7.609375 -9.203125 -9.21875 -9.203125 C -10.296875 -9.203125 -11.296875 -8.765625 -12 -8.015625 C -12.6875 -7.25 -13.015625 -6.3125 -13.015625 -5.109375 C -13.015625 -3.484375 -12.4375 -2.28125 -11.328125 -1.578125 C -10.640625 -1.140625 -9.828125 -0.9375 -8.515625 -0.90625 L -8.515625 -2.484375 C -9.390625 -2.53125 -9.921875 -2.640625 -10.34375 -2.859375 C -11.140625 -3.28125 -11.625 -4.109375 -11.625 -5.0625 C -11.625 -6.5 -10.578125 -7.578125 -9.1875 -7.578125 C -8.140625 -7.578125 -7.234375 -6.984375 -6.59375 -5.84375 L -5.609375 -4.1875 C -4.09375 -1.53125 -2.859375 -0.75 -0.015625 -0.609375 L -0.015625 -9.109375 Z M -1.5625 -9.109375 "/>
</g>
<g id="glyph-4-3">
</g>
<g id="glyph-4-4">
<path d="M -13.125 -4.5 L -13.125 -1.15625 L 3.8125 -1.15625 L 3.8125 -4.5 L 2.515625 -4.5 L 2.515625 -2.640625 L -11.828125 -2.640625 L -11.828125 -4.5 Z M -13.125 -4.5 "/>
</g>
<g id="glyph-4-5">
<path d="M -6 -3.984375 L -6 -4.84375 C -6 -6.5625 -5.1875 -7.484375 -3.625 -7.484375 C -1.984375 -7.484375 -0.984375 -6.5 -0.984375 -4.859375 C -0.984375 -3.109375 -1.875 -2.265625 -3.78125 -2.15625 L -3.78125 -0.578125 C -2.734375 -0.640625 -2.046875 -0.828125 -1.46875 -1.140625 C -0.21875 -1.796875 0.40625 -3.046875 0.40625 -4.78125 C 0.40625 -7.421875 -1.171875 -9.109375 -3.640625 -9.109375 C -5.296875 -9.109375 -6.1875 -8.484375 -6.734375 -6.953125 C -7.21875 -8.140625 -8.125 -8.734375 -9.4375 -8.734375 C -11.65625 -8.734375 -13.015625 -7.265625 -13.015625 -4.84375 C -13.015625 -2.265625 -11.578125 -0.90625 -8.8125 -0.84375 L -8.8125 -2.4375 C -9.609375 -2.453125 -10.0625 -2.515625 -10.453125 -2.71875 C -11.203125 -3.078125 -11.625 -3.875 -11.625 -4.859375 C -11.625 -6.265625 -10.78125 -7.109375 -9.375 -7.109375 C -8.453125 -7.109375 -7.90625 -6.78125 -7.59375 -6.078125 C -7.421875 -5.65625 -7.34375 -5.078125 -7.328125 -3.984375 Z M -6 -3.984375 "/>
</g>
<g id="glyph-4-6">
<path d="M -1.875 -3.4375 L -1.875 -1.5625 L 0 -1.5625 L 0 -3.4375 Z M -1.875 -3.4375 "/>
</g>
<g id="glyph-4-7">
<path d="M -9.625 -8.96875 C -11.75 -8.65625 -13.015625 -7.296875 -13.015625 -5.34375 C -13.015625 -3.9375 -12.328125 -2.6875 -11.15625 -1.921875 C -9.875 -1.109375 -8.296875 -0.78125 -5.9375 -0.78125 C -3.75 -0.78125 -2.359375 -1.078125 -1.203125 -1.859375 C -0.140625 -2.53125 0.40625 -3.65625 0.40625 -5.0625 C 0.40625 -7.484375 -1.40625 -9.234375 -3.9375 -9.234375 C -6.34375 -9.234375 -8.03125 -7.609375 -8.03125 -5.328125 C -8.03125 -4.0625 -7.5625 -3.078125 -6.609375 -2.390625 C -9.828125 -2.40625 -11.609375 -3.421875 -11.609375 -5.234375 C -11.609375 -6.359375 -10.890625 -7.125 -9.625 -7.375 Z M -6.625 -5.125 C -6.625 -6.65625 -5.546875 -7.609375 -3.8125 -7.609375 C -2.171875 -7.609375 -0.984375 -6.53125 -0.984375 -5.078125 C -0.984375 -3.59375 -2.234375 -2.484375 -3.890625 -2.484375 C -5.515625 -2.484375 -6.625 -3.5625 -6.625 -5.125 Z M -6.625 -5.125 "/>
</g>
<g id="glyph-4-8">
<path d="M -12.765625 -9.359375 L -12.765625 -0.828125 L -11.203125 -0.828125 L -11.203125 -7.71875 C -6.859375 -4.6875 -4.1875 -3.4375 0 -2.484375 L 0 -4.171875 C -4.09375 -4.875 -7.59375 -6.484375 -11.4375 -9.359375 Z M -12.765625 -9.359375 "/>
</g>
<g id="glyph-4-9">
<path d="M -12.328125 -3.578125 C -12.328125 -1.890625 -10.9375 -0.515625 -9.25 -0.515625 C -7.5625 -0.515625 -6.171875 -1.890625 -6.171875 -3.59375 C -6.171875 -5.28125 -7.5625 -6.65625 -9.21875 -6.65625 C -10.96875 -6.65625 -12.328125 -5.3125 -12.328125 -3.578125 Z M -11.0625 -3.578125 C -11.0625 -4.609375 -10.265625 -5.421875 -9.234375 -5.421875 C -8.25 -5.421875 -7.4375 -4.59375 -7.4375 -3.59375 C -7.4375 -2.59375 -8.25 -1.765625 -9.25 -1.765625 C -10.265625 -1.765625 -11.0625 -2.578125 -11.0625 -3.578125 Z M -12.765625 -10.96875 L 0.359375 -3.859375 L 0.359375 -5.046875 L -12.765625 -12.15625 Z M -5.796875 -12.390625 C -5.796875 -10.6875 -4.421875 -9.328125 -2.734375 -9.328125 C -1.03125 -9.328125 0.34375 -10.6875 0.34375 -12.40625 C 0.34375 -14.078125 -1.03125 -15.46875 -2.703125 -15.46875 C -4.421875 -15.46875 -5.796875 -14.109375 -5.796875 -12.390625 Z M -4.53125 -12.390625 C -4.53125 -13.40625 -3.71875 -14.21875 -2.703125 -14.21875 C -1.734375 -14.21875 -0.921875 -13.390625 -0.921875 -12.40625 C -0.921875 -11.375 -1.734375 -10.5625 -2.734375 -10.5625 C -3.71875 -10.5625 -4.53125 -11.375 -4.53125 -12.390625 Z M -4.53125 -12.390625 "/>
</g>
<g id="glyph-4-10">
<path d="M 3.8125 -0.40625 L 3.8125 -3.765625 L -13.125 -3.765625 L -13.125 -0.40625 L -11.828125 -0.40625 L -11.828125 -2.265625 L 2.515625 -2.265625 L 2.515625 -0.40625 Z M 3.8125 -0.40625 "/>
</g>
</g>
</defs>
<rect x="-57.6" y="-72" width="691.2" height="864" fill="rgb(100%, 100%, 100%)" fill-opacity="1"/>
<path fill-rule="nonzero" fill="rgb(85.490196%, 64.705882%, 12.54902%)" fill-opacity="1" stroke-width="0.75" stroke-linecap="round" stroke-linejoin="round" stroke="rgb(85.490196%, 64.705882%, 12.54902%)" stroke-opacity="1" stroke-miterlimit="10" d="M 78.332031 403.265625 C 78.332031 405.664062 74.734375 405.664062 74.734375 403.265625 C 74.734375 400.863281 78.332031 400.863281 78.332031 403.265625 "/>
<path fill-rule="nonzero" fill="rgb(85.490196%, 64.705882%, 12.54902%)" fill-opacity="1" d="M 190.128906 457.375 L 193.765625 463.671875 L 186.496094 463.671875 Z M 190.128906 457.375 "/>
<path fill-rule="nonzero" fill="rgb(85.490196%, 64.705882%, 12.54902%)" fill-opacity="1" d="M 260.5 184.632812 L 265.898438 184.632812 L 265.898438 179.234375 L 260.5 179.234375 Z M 260.5 184.632812 "/>
<path fill-rule="nonzero" fill="rgb(98.039216%, 50.196078%, 44.705882%)" fill-opacity="1" stroke-width="0.75" stroke-linecap="round" stroke-linejoin="round" stroke="rgb(98.039216%, 50.196078%, 44.705882%)" stroke-opacity="1" stroke-miterlimit="10" d="M 214.574219 239.167969 C 214.574219 241.570312 210.972656 241.570312 210.972656 239.167969 C 210.972656 236.769531 214.574219 236.769531 214.574219 239.167969 "/>
<path fill-rule="nonzero" fill="rgb(98.039216%, 50.196078%, 44.705882%)" fill-opacity="1" d="M 360.171875 161.402344 L 363.804688 167.699219 L 356.535156 167.699219 Z M 360.171875 161.402344 "/>
<path fill-rule="nonzero" fill="rgb(98.039216%, 50.196078%, 44.705882%)" fill-opacity="1" d="M 158.726562 54.964844 L 164.128906 54.964844 L 164.128906 49.566406 L 158.726562 49.566406 Z M 158.726562 54.964844 "/>
<path fill-rule="nonzero" fill="rgb(39.215686%, 58.431373%, 92.941176%)" fill-opacity="1" stroke-width="0.75" stroke-linecap="round" stroke-linejoin="round" stroke="rgb(39.215686%, 58.431373%, 92.941176%)" stroke-opacity="1" stroke-miterlimit="10" d="M 415.335938 295.753906 C 415.335938 298.152344 411.734375 298.152344 411.734375 295.753906 C 411.734375 293.351562 415.335938 293.351562 415.335938 295.753906 "/>
<path fill-rule="nonzero" fill="rgb(39.215686%, 58.431373%, 92.941176%)" fill-opacity="1" d="M 407.136719 260.136719 L 410.769531 266.433594 L 403.5 266.433594 Z M 407.136719 260.136719 "/>
<path fill-rule="nonzero" fill="rgb(39.215686%, 58.431373%, 92.941176%)" fill-opacity="1" d="M 370.910156 616.210938 L 376.308594 616.210938 L 376.308594 610.808594 L 370.910156 610.808594 Z M 370.910156 616.210938 "/>
<path fill-rule="nonzero" fill="rgb(41.176471%, 41.176471%, 41.176471%)" fill-opacity="1" stroke-width="0.75" stroke-linecap="round" stroke-linejoin="round" stroke="rgb(41.176471%, 41.176471%, 41.176471%)" stroke-opacity="1" stroke-miterlimit="10" d="M 220.464844 218.113281 C 220.464844 220.511719 216.863281 220.511719 216.863281 218.113281 C 216.863281 215.710938 220.464844 215.710938 220.464844 218.113281 "/>
<path fill-rule="nonzero" fill="rgb(41.176471%, 41.176471%, 41.176471%)" fill-opacity="1" d="M 226.292969 175.917969 L 229.929688 182.21875 L 222.65625 182.21875 Z M 226.292969 175.917969 "/>
<path fill-rule="nonzero" fill="rgb(41.176471%, 41.176471%, 41.176471%)" fill-opacity="1" d="M 366.441406 593.578125 L 371.84375 593.578125 L 371.84375 588.179688 L 366.441406 588.179688 Z M 366.441406 593.578125 "/>
<path fill-rule="nonzero" fill="rgb(85.490196%, 64.705882%, 12.54902%)" fill-opacity="1" stroke-width="0.75" stroke-linecap="round" stroke-linejoin="round" stroke="rgb(85.490196%, 64.705882%, 12.54902%)" stroke-opacity="1" stroke-miterlimit="10" d="M 87.128906 405.320312 C 87.128906 407.722656 83.53125 407.722656 83.53125 405.320312 C 83.53125 402.921875 87.128906 402.921875 87.128906 405.320312 "/>
<path fill-rule="nonzero" fill="rgb(85.490196%, 64.705882%, 12.54902%)" fill-opacity="1" d="M 264.699219 354.113281 L 268.335938 360.410156 L 261.0625 360.410156 Z M 264.699219 354.113281 "/>
<path fill-rule="nonzero" fill="rgb(85.490196%, 64.705882%, 12.54902%)" fill-opacity="1" d="M 273.28125 200.363281 L 278.683594 200.363281 L 278.683594 194.964844 L 273.28125 194.964844 Z M 273.28125 200.363281 "/>
<path fill-rule="nonzero" fill="rgb(98.039216%, 50.196078%, 44.705882%)" fill-opacity="1" stroke-width="0.75" stroke-linecap="round" stroke-linejoin="round" stroke="rgb(98.039216%, 50.196078%, 44.705882%)" stroke-opacity="1" stroke-miterlimit="10" d="M 223.820312 294 C 223.820312 296.398438 220.21875 296.398438 220.21875 294 C 220.21875 291.601562 223.820312 291.601562 223.820312 294 "/>
<path fill-rule="nonzero" fill="rgb(98.039216%, 50.196078%, 44.705882%)" fill-opacity="1" d="M 411.914062 236.851562 L 415.550781 243.148438 L 408.277344 243.148438 Z M 411.914062 236.851562 "/>
<path fill-rule="nonzero" fill="rgb(98.039216%, 50.196078%, 44.705882%)" fill-opacity="1" d="M 414.796875 215.1875 L 420.195312 215.1875 L 420.195312 209.789062 L 414.796875 209.789062 Z M 414.796875 215.1875 "/>
<path fill-rule="nonzero" fill="rgb(39.215686%, 58.431373%, 92.941176%)" fill-opacity="1" stroke-width="0.75" stroke-linecap="round" stroke-linejoin="round" stroke="rgb(39.215686%, 58.431373%, 92.941176%)" stroke-opacity="1" stroke-miterlimit="10" d="M 422.757812 235.871094 C 422.757812 238.269531 419.160156 238.269531 419.160156 235.871094 C 419.160156 233.46875 422.757812 233.46875 422.757812 235.871094 "/>
<path fill-rule="nonzero" fill="rgb(39.215686%, 58.431373%, 92.941176%)" fill-opacity="1" d="M 413.757812 251.011719 L 417.394531 257.3125 L 410.121094 257.3125 Z M 413.757812 251.011719 "/>
<path fill-rule="nonzero" fill="rgb(39.215686%, 58.431373%, 92.941176%)" fill-opacity="1" d="M 370.136719 641.632812 L 375.539062 641.632812 L 375.539062 636.234375 L 370.136719 636.234375 Z M 370.136719 641.632812 "/>
<path fill-rule="nonzero" fill="rgb(41.176471%, 41.176471%, 41.176471%)" fill-opacity="1" stroke-width="0.75" stroke-linecap="round" stroke-linejoin="round" stroke="rgb(41.176471%, 41.176471%, 41.176471%)" stroke-opacity="1" stroke-miterlimit="10" d="M 384.925781 268.304688 C 384.925781 270.703125 381.324219 270.703125 381.324219 268.304688 C 381.324219 265.902344 384.925781 265.902344 384.925781 268.304688 "/>
<path fill-rule="nonzero" fill="rgb(41.176471%, 41.176471%, 41.176471%)" fill-opacity="1" d="M 229.964844 178.421875 L 233.601562 184.71875 L 226.328125 184.71875 Z M 229.964844 178.421875 "/>
<path fill-rule="nonzero" fill="rgb(41.176471%, 41.176471%, 41.176471%)" fill-opacity="1" d="M 164.09375 238.371094 L 169.496094 238.371094 L 169.496094 232.972656 L 164.09375 232.972656 Z M 164.09375 238.371094 "/>
<path fill-rule="nonzero" fill="rgb(85.490196%, 64.705882%, 12.54902%)" fill-opacity="1" stroke-width="0.75" stroke-linecap="round" stroke-linejoin="round" stroke="rgb(85.490196%, 64.705882%, 12.54902%)" stroke-opacity="1" stroke-miterlimit="10" d="M 83.984375 406.667969 C 83.984375 409.066406 80.386719 409.066406 80.386719 406.667969 C 80.386719 404.265625 83.984375 404.265625 83.984375 406.667969 "/>
<path fill-rule="nonzero" fill="rgb(85.490196%, 64.705882%, 12.54902%)" fill-opacity="1" d="M 244.480469 122.976562 L 248.117188 129.273438 L 240.84375 129.273438 Z M 244.480469 122.976562 "/>
<path fill-rule="nonzero" fill="rgb(85.490196%, 64.705882%, 12.54902%)" fill-opacity="1" d="M 263.941406 201.261719 L 269.339844 201.261719 L 269.339844 195.859375 L 263.941406 195.859375 Z M 263.941406 201.261719 "/>
<path fill-rule="nonzero" fill="rgb(98.039216%, 50.196078%, 44.705882%)" fill-opacity="1" stroke-width="0.75" stroke-linecap="round" stroke-linejoin="round" stroke="rgb(98.039216%, 50.196078%, 44.705882%)" stroke-opacity="1" stroke-miterlimit="10" d="M 245.136719 251.808594 C 245.136719 254.207031 241.539062 254.207031 241.539062 251.808594 C 241.539062 249.40625 245.136719 249.40625 245.136719 251.808594 "/>
<path fill-rule="nonzero" fill="rgb(98.039216%, 50.196078%, 44.705882%)" fill-opacity="1" d="M 313.074219 186.003906 L 316.710938 192.304688 L 309.4375 192.304688 Z M 313.074219 186.003906 "/>
<path fill-rule="nonzero" fill="rgb(98.039216%, 50.196078%, 44.705882%)" fill-opacity="1" d="M 311.867188 188.480469 L 317.265625 188.480469 L 317.265625 183.082031 L 311.867188 183.082031 Z M 311.867188 188.480469 "/>
<path fill-rule="nonzero" fill="rgb(39.215686%, 58.431373%, 92.941176%)" fill-opacity="1" stroke-width="0.75" stroke-linecap="round" stroke-linejoin="round" stroke="rgb(39.215686%, 58.431373%, 92.941176%)" stroke-opacity="1" stroke-miterlimit="10" d="M 419.46875 229.574219 C 419.46875 231.972656 415.867188 231.972656 415.867188 229.574219 C 415.867188 227.171875 419.46875 227.171875 419.46875 229.574219 "/>
<path fill-rule="nonzero" fill="rgb(39.215686%, 58.431373%, 92.941176%)" fill-opacity="1" d="M 549.867188 210.867188 L 553.503906 217.164062 L 546.230469 217.164062 Z M 549.867188 210.867188 "/>
<path fill-rule="nonzero" fill="rgb(39.215686%, 58.431373%, 92.941176%)" fill-opacity="1" d="M 404.71875 323.585938 L 410.121094 323.585938 L 410.121094 318.183594 L 404.71875 318.183594 Z M 404.71875 323.585938 "/>
<path fill-rule="nonzero" fill="rgb(41.176471%, 41.176471%, 41.176471%)" fill-opacity="1" stroke-width="0.75" stroke-linecap="round" stroke-linejoin="round" stroke="rgb(41.176471%, 41.176471%, 41.176471%)" stroke-opacity="1" stroke-miterlimit="10" d="M 225.582031 183.101562 C 225.582031 185.5 221.980469 185.5 221.980469 183.101562 C 221.980469 180.703125 225.582031 180.703125 225.582031 183.101562 "/>
<path fill-rule="nonzero" fill="rgb(41.176471%, 41.176471%, 41.176471%)" fill-opacity="1" d="M 232.90625 187.257812 L 236.542969 193.554688 L 229.269531 193.554688 Z M 232.90625 187.257812 "/>
<path fill-rule="nonzero" fill="rgb(41.176471%, 41.176471%, 41.176471%)" fill-opacity="1" d="M 245.597656 488.855469 L 250.996094 488.855469 L 250.996094 483.457031 L 245.597656 483.457031 Z M 245.597656 488.855469 "/>
<path fill="none" stroke-width="0.75" stroke-linecap="round" stroke-linejoin="round" stroke="rgb(0%, 0%, 0%)" stroke-opacity="1" stroke-miterlimit="10" d="M 115.234375 662.398438 L 555.046875 662.398438 "/>
<path fill="none" stroke-width="0.75" stroke-linecap="round" stroke-linejoin="round" stroke="rgb(0%, 0%, 0%)" stroke-opacity="1" stroke-miterlimit="10" d="M 115.234375 662.398438 L 115.234375 669.601562 "/>
<path fill="none" stroke-width="0.75" stroke-linecap="round" stroke-linejoin="round" stroke="rgb(0%, 0%, 0%)" stroke-opacity="1" stroke-miterlimit="10" d="M 203.195312 662.398438 L 203.195312 669.601562 "/>
<path fill="none" stroke-width="0.75" stroke-linecap="round" stroke-linejoin="round" stroke="rgb(0%, 0%, 0%)" stroke-opacity="1" stroke-miterlimit="10" d="M 291.160156 662.398438 L 291.160156 669.601562 "/>
<path fill="none" stroke-width="0.75" stroke-linecap="round" stroke-linejoin="round" stroke="rgb(0%, 0%, 0%)" stroke-opacity="1" stroke-miterlimit="10" d="M 379.121094 662.398438 L 379.121094 669.601562 "/>
<path fill="none" stroke-width="0.75" stroke-linecap="round" stroke-linejoin="round" stroke="rgb(0%, 0%, 0%)" stroke-opacity="1" stroke-miterlimit="10" d="M 467.085938 662.398438 L 467.085938 669.601562 "/>
<path fill="none" stroke-width="0.75" stroke-linecap="round" stroke-linejoin="round" stroke="rgb(0%, 0%, 0%)" stroke-opacity="1" stroke-miterlimit="10" d="M 555.046875 662.398438 L 555.046875 669.601562 "/>
<g fill="rgb(0%, 0%, 0%)" fill-opacity="1">
<use xlink:href="#glyph-0-0" x="106.234375" y="688.068359"/>
<use xlink:href="#glyph-0-1" x="110.234375" y="688.068359"/>
<use xlink:href="#glyph-0-2" x="117.234375" y="688.068359"/>
</g>
<g fill="rgb(0%, 0%, 0%)" fill-opacity="1">
<use xlink:href="#glyph-0-0" x="194.195312" y="688.068359"/>
<use xlink:href="#glyph-0-3" x="198.195312" y="688.068359"/>
<use xlink:href="#glyph-0-2" x="205.195312" y="688.068359"/>
</g>
<g fill="rgb(0%, 0%, 0%)" fill-opacity="1">
<use xlink:href="#glyph-0-2" x="287.660156" y="688.068359"/>
</g>
<g fill="rgb(0%, 0%, 0%)" fill-opacity="1">
<use xlink:href="#glyph-0-3" x="372.121094" y="688.068359"/>
<use xlink:href="#glyph-0-2" x="379.121094" y="688.068359"/>
</g>
<g fill="rgb(0%, 0%, 0%)" fill-opacity="1">
<use xlink:href="#glyph-0-1" x="460.085938" y="688.068359"/>
<use xlink:href="#glyph-0-2" x="467.085938" y="688.068359"/>
</g>
<g fill="rgb(0%, 0%, 0%)" fill-opacity="1">
<use xlink:href="#glyph-0-4" x="548.046875" y="688.068359"/>
<use xlink:href="#glyph-0-2" x="555.046875" y="688.068359"/>
</g>
<path fill="none" stroke-width="0.75" stroke-linecap="round" stroke-linejoin="round" stroke="rgb(0%, 0%, 0%)" stroke-opacity="1" stroke-miterlimit="10" d="M 57.601562 598.042969 L 57.601562 72.527344 "/>
<path fill="none" stroke-width="0.75" stroke-linecap="round" stroke-linejoin="round" stroke="rgb(0%, 0%, 0%)" stroke-opacity="1" stroke-miterlimit="10" d="M 57.601562 598.042969 L 50.398438 598.042969 "/>
<path fill="none" stroke-width="0.75" stroke-linecap="round" stroke-linejoin="round" stroke="rgb(0%, 0%, 0%)" stroke-opacity="1" stroke-miterlimit="10" d="M 57.601562 492.941406 L 50.398438 492.941406 "/>
<path fill="none" stroke-width="0.75" stroke-linecap="round" stroke-linejoin="round" stroke="rgb(0%, 0%, 0%)" stroke-opacity="1" stroke-miterlimit="10" d="M 57.601562 387.835938 L 50.398438 387.835938 "/>
<path fill="none" stroke-width="0.75" stroke-linecap="round" stroke-linejoin="round" stroke="rgb(0%, 0%, 0%)" stroke-opacity="1" stroke-miterlimit="10" d="M 57.601562 282.734375 L 50.398438 282.734375 "/>
<path fill="none" stroke-width="0.75" stroke-linecap="round" stroke-linejoin="round" stroke="rgb(0%, 0%, 0%)" stroke-opacity="1" stroke-miterlimit="10" d="M 57.601562 177.628906 L 50.398438 177.628906 "/>
<path fill="none" stroke-width="0.75" stroke-linecap="round" stroke-linejoin="round" stroke="rgb(0%, 0%, 0%)" stroke-opacity="1" stroke-miterlimit="10" d="M 57.601562 72.527344 L 50.398438 72.527344 "/>
<g fill="rgb(0%, 0%, 0%)" fill-opacity="1">
<use xlink:href="#glyph-1-0" x="40.068359" y="603.542969"/>
<use xlink:href="#glyph-1-1" x="40.068359" y="599.542969"/>
</g>
<g fill="rgb(0%, 0%, 0%)" fill-opacity="1">
<use xlink:href="#glyph-1-0" x="40.068359" y="498.441406"/>
<use xlink:href="#glyph-1-2" x="40.068359" y="494.441406"/>
</g>
<g fill="rgb(0%, 0%, 0%)" fill-opacity="1">
<use xlink:href="#glyph-1-0" x="40.068359" y="393.335938"/>
<use xlink:href="#glyph-1-3" x="40.068359" y="389.335938"/>
</g>
<g fill="rgb(0%, 0%, 0%)" fill-opacity="1">
<use xlink:href="#glyph-1-4" x="40.068359" y="286.234375"/>
</g>
<g fill="rgb(0%, 0%, 0%)" fill-opacity="1">
<use xlink:href="#glyph-1-3" x="40.068359" y="181.128906"/>
</g>
<g fill="rgb(0%, 0%, 0%)" fill-opacity="1">
<use xlink:href="#glyph-1-2" x="40.068359" y="76.027344"/>
</g>
<path fill="none" stroke-width="0.75" stroke-linecap="round" stroke-linejoin="round" stroke="rgb(0%, 0%, 0%)" stroke-opacity="1" stroke-miterlimit="10" d="M 57.601562 662.398438 L 568.800781 662.398438 L 568.800781 28.800781 L 57.601562 28.800781 Z M 57.601562 662.398438 "/>
<g fill="rgb(0%, 0%, 0%)" fill-opacity="1">
<use xlink:href="#glyph-2-0" x="135.199219" y="20.520508"/>
<use xlink:href="#glyph-2-1" x="147.199219" y="20.520508"/>
<use xlink:href="#glyph-2-2" x="152.199219" y="20.520508"/>
<use xlink:href="#glyph-2-3" x="158.199219" y="20.520508"/>
<use xlink:href="#glyph-2-1" x="168.199219" y="20.520508"/>
<use xlink:href="#glyph-2-4" x="173.199219" y="20.520508"/>
<use xlink:href="#glyph-2-5" x="183.199219" y="20.520508"/>
<use xlink:href="#glyph-2-6" x="193.199219" y="20.520508"/>
<use xlink:href="#glyph-2-5" x="204.199219" y="20.520508"/>
<use xlink:href="#glyph-2-4" x="214.199219" y="20.520508"/>
<use xlink:href="#glyph-2-7" x="224.199219" y="20.520508"/>
<use xlink:href="#glyph-2-4" x="234.199219" y="20.520508"/>
<use xlink:href="#glyph-2-8" x="244.199219" y="20.520508"/>
<use xlink:href="#glyph-2-9" x="254.199219" y="20.520508"/>
<use xlink:href="#glyph-2-10" x="259.199219" y="20.520508"/>
<use xlink:href="#glyph-2-9" x="265.199219" y="20.520508"/>
<use xlink:href="#glyph-2-11" x="270.199219" y="20.520508"/>
<use xlink:href="#glyph-2-12" x="280.199219" y="20.520508"/>
<use xlink:href="#glyph-2-10" x="291.199219" y="20.520508"/>
<use xlink:href="#glyph-2-2" x="297.199219" y="20.520508"/>
<use xlink:href="#glyph-2-13" x="303.199219" y="20.520508"/>
<use xlink:href="#glyph-2-14" x="310.199219" y="20.520508"/>
<use xlink:href="#glyph-2-15" x="320.199219" y="20.520508"/>
<use xlink:href="#glyph-2-16" x="331.199219" y="20.520508"/>
<use xlink:href="#glyph-2-11" x="341.199219" y="20.520508"/>
<use xlink:href="#glyph-2-13" x="351.199219" y="20.520508"/>
<use xlink:href="#glyph-2-1" x="358.199219" y="20.520508"/>
<use xlink:href="#glyph-2-17" x="363.199219" y="20.520508"/>
<use xlink:href="#glyph-2-2" x="374.199219" y="20.520508"/>
<use xlink:href="#glyph-2-1" x="380.199219" y="20.520508"/>
<use xlink:href="#glyph-2-12" x="385.199219" y="20.520508"/>
<use xlink:href="#glyph-2-15" x="396.199219" y="20.520508"/>
<use xlink:href="#glyph-2-14" x="407.199219" y="20.520508"/>
<use xlink:href="#glyph-2-18" x="417.199219" y="20.520508"/>
<use xlink:href="#glyph-2-9" x="422.199219" y="20.520508"/>
<use xlink:href="#glyph-2-19" x="427.199219" y="20.520508"/>
<use xlink:href="#glyph-2-12" x="443.199219" y="20.520508"/>
<use xlink:href="#glyph-2-20" x="454.199219" y="20.520508"/>
<use xlink:href="#glyph-2-21" x="465.199219" y="20.520508"/>
<use xlink:href="#glyph-2-18" x="476.199219" y="20.520508"/>
<use xlink:href="#glyph-2-22" x="481.199219" y="20.520508"/>
</g>
<g fill="rgb(0%, 0%, 0%)" fill-opacity="1">
<use xlink:href="#glyph-3-0" x="252.699219" y="709.043945"/>
<use xlink:href="#glyph-3-1" x="264.699219" y="709.043945"/>
<use xlink:href="#glyph-3-2" x="277.699219" y="709.043945"/>
<use xlink:href="#glyph-3-3" x="287.699219" y="709.043945"/>
<use xlink:href="#glyph-3-4" x="292.699219" y="709.043945"/>
<use xlink:href="#glyph-3-3" x="297.699219" y="709.043945"/>
<use xlink:href="#glyph-3-5" x="302.699219" y="709.043945"/>
<use xlink:href="#glyph-3-6" x="312.699219" y="709.043945"/>
<use xlink:href="#glyph-3-7" x="322.699219" y="709.043945"/>
<use xlink:href="#glyph-3-2" x="327.699219" y="709.043945"/>
<use xlink:href="#glyph-3-8" x="337.699219" y="709.043945"/>
<use xlink:href="#glyph-3-3" x="347.699219" y="709.043945"/>
<use xlink:href="#glyph-3-9" x="352.699219" y="709.043945"/>
<use xlink:href="#glyph-3-10" x="368.699219" y="709.043945"/>
</g>
<g fill="rgb(0%, 0%, 0%)" fill-opacity="1">
<use xlink:href="#glyph-4-0" x="17.84082" y="401.101562"/>
<use xlink:href="#glyph-4-1" x="17.84082" y="389.101562"/>
<use xlink:href="#glyph-4-2" x="17.84082" y="376.101562"/>
<use xlink:href="#glyph-4-3" x="17.84082" y="366.101562"/>
<use xlink:href="#glyph-4-4" x="17.84082" y="361.101562"/>
<use xlink:href="#glyph-4-3" x="17.84082" y="356.101562"/>
<use xlink:href="#glyph-4-5" x="17.84082" y="351.101562"/>
<use xlink:href="#glyph-4-6" x="17.84082" y="341.101562"/>
<use xlink:href="#glyph-4-7" x="17.84082" y="336.101562"/>
<use xlink:href="#glyph-4-8" x="17.84082" y="326.101562"/>
<use xlink:href="#glyph-4-3" x="17.84082" y="316.101562"/>
<use xlink:href="#glyph-4-9" x="17.84082" y="311.101562"/>
<use xlink:href="#glyph-4-10" x="17.84082" y="295.101562"/>
</g>
</svg>
